<?xml version="1.0" encoding="UTF-8"?>
<svg id="Capa_1" data-name="Capa 1" xmlns="http://www.w3.org/2000/svg" viewBox="0 0 277.06 128.24">
  <defs>
    <style>
      .cls-1 {
        fill: #363539;
      }

      .cls-2 {
        fill: #375ea9;
      }

      .cls-3 {
        fill: #58aee2;
      }

      .cls-4 {
        fill: #3e7cc0;
      }

      .cls-5 {
        fill: #70caee;
      }
    </style>
  </defs>
  <g>
    <path class="cls-5" d="M87.29,40.9c-.2,12.67-1.27,21.91-9.83,31.9-10.29,12.01-21.62,14.49-36.82,14.75-15.22.27-34.94,2.42-39.73-16.4,10,.33,20.2.08,28.24-6.57,7.61-6.29,11.07-13.84,11.49-23.68.59-13.9-3.35-29.54,11.29-37.73,14.82-8.29,34.05.42,35.36,17.87.46,6.1.1,13.64,0,19.86Z"/>
    <path class="cls-4" d="M87.29,40.9c9.76.71,21.11-2.09,29.86,3.13,5.3,3.16,8.23,7.38,9.87,13.28-10.54-.4-19.43-.21-28.03,6.42-7.63,5.88-11.18,14.3-11.7,23.84-.44,8.11,1.35,18.96-1.45,26.43-7.01,18.66-35.59,19.13-43.33.67-3.46-8.24-1.25-18.33-1.87-27.1,15.2-.27,26.53-2.75,36.82-14.75,8.57-9.99,9.63-19.24,9.83-31.9Z"/>
    <path class="cls-2" d="M127.02,57.3c2.57,9.23.53,18.86-7.12,25.14-9.37,7.69-21.41,4.44-32.61,5.11.52-9.54,4.07-17.96,11.7-23.84,8.6-6.62,17.49-6.81,28.03-6.42Z"/>
    <path class="cls-3" d="M40.63,40.9c-.42,9.85-3.88,17.39-11.49,23.68-8.04,6.65-18.24,6.9-28.24,6.57-1.92-7.56-.88-16.13,4.19-22.24,9.32-11.24,22.69-7.35,35.54-8.01Z"/>
  </g>
  <g>
    <path class="cls-1" d="M170.68,55.96c-.61.88-.67,1.76-.18,2.64l15.18,24.86c.63,1,.76,1.85.37,2.55s-1.19,1.04-2.38,1.04h-6.6c-1.64,0-2.85-.67-3.63-2.02l-11.11-18.62c-.61-1.1-1.46-1.28-2.53-.55l-1.91,1.36c-.78.54-1.17,1.29-1.17,2.27v14.55c0,2-1,3.01-3.01,3.01h-5.65c-2,0-3.01-1-3.01-3.01v-47.58c0-2,1-3.01,3.01-3.01h5.65c2,0,3.01,1,3.01,3.01v17.56c0,.9.25,1.43.75,1.58.5.15,1.02-.13,1.56-.84l14.48-19.5c.93-1.2,2.14-1.8,3.63-1.8h6.09c1.25,0,2.05.36,2.4,1.08.35.72.15,1.58-.6,2.58l-14.33,18.84Z"/>
    <path class="cls-1" d="M203.38,30.01c2,0,3.01.99,3.01,2.97v51.07c0,2-1,3.01-3.01,3.01h-5.46c-2,0-3.01-1-3.01-3.01v-51.07c0-1.98,1-2.97,3.01-2.97h5.46Z"/>
    <path class="cls-1" d="M224.82,29.82c4.15,0,6.23,1.86,6.23,5.57,0,1.98-.57,3.42-1.71,4.31-1.14.89-2.65,1.34-4.53,1.34s-3.39-.45-4.53-1.34c-1.14-.89-1.71-2.33-1.71-4.31,0-3.71,2.08-5.57,6.23-5.57ZM219.06,49c0-2,1-3.01,3.01-3.01h5.46c2,0,3.01,1,3.01,3.01v35.05c0,2-1,3.01-3.01,3.01h-5.46c-2,0-3.01-1-3.01-3.01v-35.05Z"/>
    <path class="cls-1" d="M260.3,45.15c5.43,0,9.57,1.22,12.45,3.67,2.87,2.44,4.31,6.09,4.31,10.92v24.31c0,2-1,3.01-3.01,3.01h-2.46c-1.81,0-2.99-.77-3.56-2.31l-.66-1.76c-.34-1-.59-1.5-.73-1.5h-.18c-1.78,2.3-3.64,3.92-5.55,4.88-1.92.95-4.52,1.43-7.79,1.43-3.76,0-6.78-1.11-9.06-3.34-2.27-2.22-3.41-5.46-3.41-9.71s1.48-7.58,4.45-9.7c2.97-2.11,7.48-3.28,13.55-3.5l5.13-.15c1.25-.07,1.87-.62,1.87-1.65,0-2.05-.53-3.58-1.59-4.58-1.06-1-2.56-1.5-4.49-1.5-2.59,0-5.5.62-8.73,1.87-1.86.68-3.18.18-3.96-1.5l-1.14-2.49c-.42-.85-.53-1.62-.33-2.31.2-.68.68-1.19,1.47-1.5,4.23-1.71,8.7-2.57,13.42-2.57ZM265.66,71.95v-2.02c0-1.27-.62-1.87-1.87-1.8l-2.27.07c-3.23.1-5.55.7-6.96,1.8-1.42,1.1-2.13,2.65-2.13,4.66,0,3.15,1.71,4.73,5.13,4.73,2.35,0,4.28-.68,5.81-2.04s2.29-3.16,2.29-5.41Z"/>
  </g>
</svg>