<?xml version="1.0" encoding="UTF-8"?>
<svg id="Capa_1" xmlns="http://www.w3.org/2000/svg" version="1.1" viewBox="0 0 365 181.78">
  <!-- Generator: Adobe Illustrator 29.8.4, SVG Export Plug-In . SVG Version: 2.1.1 Build 6)  -->
  <defs>
    <style>
      .st0, .st1, .st2, .st3, .st4, .st5 {
        font-family: OpenSansSoft-Bold, 'Open Sans Soft';
        font-weight: 700;
      }

      .st0, .st1, .st3 {
        font-size: 87.19px;
        letter-spacing: .02em;
      }

      .st0, .st4 {
        fill: #363539;
      }

      .st6 {
        fill: #253676;
      }

      .st1, .st2 {
        fill: #fff;
      }

      .st7 {
        fill: #375ea9;
      }

      .st2, .st4 {
        font-size: 75.08px;
        letter-spacing: .02em;
      }

      .st8 {
        fill: #58aee2;
      }

      .st9 {
        fill: #3e7cc0;
      }

      .st3, .st5 {
        fill: #1d1d1b;
      }

      .st5 {
        font-size: 84.49px;
      }

      .st10 {
        fill: #70caee;
      }
    </style>
  </defs>
  <rect class="st6" x="380.99" y="-1.76" width="372.16" height="187.06"/>
  <g>
    <path class="st10" d="M906.22-479.96c-.15,9.46-.95,16.37-7.35,23.84-7.69,8.97-16.16,10.83-27.52,11.02s-26.11,1.81-29.69-12.26c7.47.24,15.09.06,21.1-4.91,5.69-4.7,8.27-10.34,8.59-17.7.44-10.39-2.5-22.08,8.44-28.2,11.07-6.2,25.44.32,26.42,13.36.34,4.55.08,10.2,0,14.84Z"/>
    <path class="st9" d="M906.22-479.96c7.29.53,15.78-1.56,22.31,2.34,3.96,2.36,6.15,5.51,7.38,9.92-7.88-.3-14.52-.15-20.95,4.79-5.7,4.39-8.35,10.69-8.74,17.81-.33,6.06,1.01,14.17-1.08,19.75-5.24,13.94-26.59,14.29-32.38.5-2.58-6.16-.93-13.7-1.4-20.25,11.36-.2,19.83-2.05,27.52-11.02,6.4-7.47,7.2-14.38,7.35-23.84Z"/>
    <path class="st7" d="M935.91-467.7c1.92,6.9.39,14.1-5.32,18.79-7,5.75-16,3.32-24.37,3.82.39-7.13,3.04-13.42,8.74-17.81,6.43-4.95,13.07-5.09,20.95-4.79Z"/>
    <path class="st8" d="M871.36-479.96c-.31,7.36-2.9,12.99-8.59,17.7-6.01,4.97-13.63,5.15-21.1,4.91-1.44-5.65-.66-12.05,3.13-16.62,6.96-8.4,16.95-5.49,26.56-5.99Z"/>
  </g>
  <text class="st5" transform="translate(960.98 -421.27)"><tspan x="0" y="0">Klia</tspan></text>
  <g>
    <path class="st10" d="M1117.97,193.99c-.28,17.35-1.73,30.01-13.47,43.7-14.1,16.45-29.62,19.85-50.45,20.21-20.85.36-47.87,3.31-54.43-22.47,13.69.45,27.67.1,38.68-9,10.43-8.62,15.17-18.95,15.74-32.44.81-19.05-4.58-40.47,15.47-51.69,20.3-11.36,46.64.58,48.44,24.48.63,8.35.14,18.69,0,27.21Z"/>
    <path class="st9" d="M1117.97,193.99c13.36.97,28.92-2.86,40.91,4.28,7.27,4.33,11.27,10.11,13.52,18.19-14.44-.54-26.61-.28-38.4,8.79-10.46,8.05-15.32,19.59-16.03,32.65-.61,11.11,1.86,25.98-1.99,36.21-9.6,25.56-48.75,26.2-59.36.92-4.74-11.29-1.71-25.11-2.57-37.13,20.83-.36,36.35-3.76,50.45-20.21,11.73-13.69,13.19-26.35,13.47-43.7Z"/>
    <path class="st7" d="M1172.4,216.46c3.52,12.65.72,25.84-9.75,34.44-12.84,10.54-29.33,6.08-44.68,7.01.72-13.07,5.57-24.6,16.03-32.65,11.78-9.07,23.96-9.33,38.4-8.79Z"/>
    <path class="st8" d="M1054.06,193.99c-.57,13.49-5.32,23.82-15.74,32.44-11.02,9.11-24.99,9.45-38.68,9-2.63-10.35-1.21-22.09,5.74-30.47,12.77-15.4,31.08-10.07,48.69-10.98Z"/>
  </g>
  <text class="st3" transform="translate(1002.56 395.75)"><tspan x="0" y="0">Klia</tspan></text>
  <g>
    <g>
      <path class="st10" d="M69.57-370.89c-.28,17.35-1.73,30.01-13.47,43.7-14.1,16.45-29.62,19.85-50.45,20.21s-47.87,3.31-54.43-22.47c13.69.45,27.67.1,38.68-9,10.43-8.62,15.17-18.95,15.74-32.44.81-19.05-4.58-40.47,15.47-51.69,20.3-11.36,46.64.58,48.44,24.48.63,8.35.14,18.69,0,27.21Z"/>
      <path class="st9" d="M69.57-370.89c13.36.97,28.92-2.86,40.91,4.28,7.27,4.33,11.27,10.11,13.52,18.19-14.44-.54-26.61-.28-38.4,8.79-10.46,8.05-15.32,19.59-16.03,32.65-.61,11.11,1.86,25.98-1.99,36.21-9.6,25.56-48.75,26.2-59.36.92-4.74-11.29-1.71-25.11-2.57-37.13,20.83-.36,36.35-3.76,50.45-20.21,11.73-13.69,13.19-26.35,13.47-43.7Z"/>
      <path class="st7" d="M124-348.42c3.52,12.65.72,25.84-9.75,34.44-12.84,10.54-29.33,6.08-44.68,7.01.72-13.07,5.57-24.6,16.03-32.65,11.78-9.07,23.96-9.33,38.4-8.79Z"/>
      <path class="st8" d="M5.66-370.89c-.57,13.49-5.32,23.82-15.74,32.44-11.02,9.11-24.99,9.45-38.68,9-2.63-10.35-1.21-22.09,5.74-30.47,12.77-15.4,31.08-10.07,48.69-10.98Z"/>
    </g>
    <text class="st0" transform="translate(-45.84 -169.13)"><tspan x="0" y="0">Klia</tspan></text>
  </g>
  <g>
    <path class="st10" d="M120,68.46c-.2,12.67-1.27,21.91-9.83,31.9-10.29,12.01-21.62,14.49-36.82,14.75s-34.94,2.42-39.73-16.4c10,.33,20.2.08,28.24-6.57,7.61-6.29,11.07-13.84,11.49-23.68.59-13.9-3.35-29.54,11.29-37.73,14.82-8.29,34.05.42,35.36,17.87.46,6.1.1,13.64,0,19.86Z"/>
    <path class="st9" d="M120,68.46c9.76.71,21.11-2.09,29.86,3.13,5.3,3.16,8.23,7.38,9.87,13.28-10.54-.4-19.43-.21-28.03,6.42-7.63,5.88-11.18,14.3-11.7,23.84-.44,8.11,1.35,18.96-1.45,26.43-7.01,18.66-35.59,19.13-43.33.67-3.46-8.24-1.25-18.33-1.87-27.1,15.2-.27,26.53-2.75,36.82-14.75,8.57-9.99,9.63-19.24,9.83-31.9Z"/>
    <path class="st7" d="M159.73,84.86c2.57,9.23.53,18.86-7.12,25.14-9.37,7.69-21.41,4.44-32.61,5.11.52-9.54,4.07-17.96,11.7-23.84,8.6-6.62,17.49-6.81,28.03-6.42Z"/>
    <path class="st8" d="M73.35,68.46c-.42,9.85-3.88,17.39-11.49,23.68-8.04,6.65-18.24,6.9-28.24,6.57-1.92-7.56-.88-16.13,4.19-22.24,9.32-11.24,22.69-7.35,35.54-8.01Z"/>
  </g>
  <text class="st4" transform="translate(192.24 114.61)"><tspan x="0" y="0">Klia</tspan></text>
  <rect class="st6" x="205.89" y="-454.13" width="233.36" height="327.29"/>
  <g>
    <g>
      <path class="st10" d="M355.96-368.73c-.28,17.35-1.73,30.01-13.47,43.7-14.1,16.45-29.62,19.85-50.45,20.21s-47.87,3.31-54.43-22.47c13.69.45,27.67.1,38.68-9,10.43-8.62,15.17-18.95,15.74-32.44.81-19.05-4.58-40.47,15.47-51.69,20.3-11.36,46.64.58,48.44,24.48.63,8.35.14,18.69,0,27.21Z"/>
      <path class="st9" d="M355.96-368.73c13.36.97,28.92-2.86,40.91,4.28,7.27,4.33,11.27,10.11,13.52,18.19-14.44-.54-26.61-.28-38.4,8.79-10.46,8.05-15.32,19.59-16.03,32.65-.61,11.11,1.86,25.98-1.99,36.21-9.6,25.56-48.75,26.2-59.36.92-4.74-11.29-1.71-25.11-2.57-37.13,20.83-.36,36.35-3.76,50.45-20.21,11.73-13.69,13.19-26.35,13.47-43.7Z"/>
      <path class="st7" d="M410.39-346.26c3.52,12.65.72,25.84-9.75,34.44-12.84,10.54-29.33,6.08-44.68,7.01.72-13.07,5.57-24.6,16.03-32.65,11.78-9.07,23.96-9.33,38.4-8.79Z"/>
      <path class="st8" d="M292.05-368.73c-.57,13.49-5.32,23.82-15.74,32.44-11.02,9.11-24.99,9.45-38.68,9-2.63-10.35-1.21-22.09,5.74-30.47,12.77-15.4,31.08-10.07,48.69-10.98Z"/>
    </g>
    <text class="st1" transform="translate(240.55 -166.96)"><tspan x="0" y="0">Klia</tspan></text>
  </g>
  <g>
    <path class="st10" d="M498.69,68.96c-.2,12.67-1.27,21.91-9.83,31.9-10.29,12.01-21.62,14.49-36.82,14.75s-34.94,2.42-39.73-16.4c10,.33,20.2.08,28.24-6.57,7.61-6.29,11.07-13.84,11.49-23.68.59-13.9-3.35-29.54,11.29-37.73,14.82-8.29,34.05.42,35.36,17.87.46,6.1.1,13.64,0,19.86Z"/>
    <path class="st9" d="M498.69,68.96c9.76.71,21.11-2.09,29.86,3.13,5.3,3.16,8.23,7.38,9.87,13.28-10.54-.4-19.43-.21-28.03,6.42-7.63,5.88-11.18,14.3-11.7,23.84-.44,8.11,1.35,18.96-1.45,26.43-7.01,18.66-35.59,19.13-43.33.67-3.46-8.24-1.25-18.33-1.87-27.1,15.2-.27,26.53-2.75,36.82-14.75,8.57-9.99,9.63-19.24,9.83-31.9Z"/>
    <path class="st7" d="M538.42,85.36c2.57,9.23.53,18.86-7.12,25.14-9.37,7.69-21.41,4.44-32.61,5.11.52-9.54,4.07-17.96,11.7-23.84,8.6-6.62,17.49-6.81,28.03-6.42Z"/>
    <path class="st8" d="M452.03,68.96c-.42,9.85-3.88,17.39-11.49,23.68-8.04,6.65-18.24,6.9-28.24,6.57-1.92-7.56-.88-16.13,4.19-22.24,9.32-11.24,22.69-7.35,35.54-8.01Z"/>
  </g>
  <text class="st2" transform="translate(570.93 115.11)"><tspan x="0" y="0">Klia</tspan></text>
</svg>